# xmcd
#
# Track frame offsets:
#	183
#	32208
#	60858
#	96258
#	122133
#	147108
#	181983
#	214458
#	233733
#	253983
#
# Disc length: 3608 seconds
#
# Revision: 8
# Processed by: cddbd v1.5.2PL0 Copyright (c) Steve Scherf et al.
# Submitted via: audiograbber 1.82.02
#
DISCID=900e160a
DTITLE=Claudio Arrau - Chopin - The Nocturnes CD2
DYEAR=1977
DGENRE=Classical
TTITLE0=Chopin - No. 12 in G major, Op.37/2
TTITLE1=Chopin - No. 13 in C minor, Op.48/1
TTITLE2=Chopin - No. 14 in F sharp minor, Op.48/2
TTITLE3=Chopin - No. 15 in F minor, Op.55/1
TTITLE4=Chopin - No. 16 in E flat major, Op.55/2
TTITLE5=Chopin - No. 17 in B major, Op.62/1
TTITLE6=Chopin - No. 18 in E major, Op.62/2
TTITLE7=Chiopin - No. 19 in E minor, Op.72/1
TTITLE8=Chopin - No. 20 in C sharp minor, Op. posth.
TTITLE9=Chopin - No. 21 in C minor, Op. posth.
EXTD=Philips 416 440-2 ADD\nDisc 2 of 2\nClaudio Arrau - pf YEAR: 1977
EXTT0=
EXTT1=
EXTT2=
EXTT3=
EXTT4=
EXTT5=
EXTT6=
EXTT7=
EXTT8=
EXTT9=
PLAYORDER=
